<?xml version="1.0" encoding="utf-8"?>
<!-- Svg Vector Icons : http://www.onlinewebfonts.com/icon -->
<!DOCTYPE svg PUBLIC "-//W3C//DTD SVG 1.1//EN" "http://www.w3.org/Graphics/SVG/1.1/DTD/svg11.dtd">
 <svg class = "icon"  xmlns="http://www.w3.org/2000/svg"  width="200" height="200"  viewBox="0 0 300 300">
        <metadata> Svg Vector Icons : http://www.onlinewebfonts.com/icon </metadata>
        <g><g><g><path id="up-arrow"  d="M125.5,10.8 L92.5,55.2 L158.5,55.2 Z" fill="transparent" stroke="#ff0000" stroke-width="10"  /><path id="left-arrow" fill="#ff0000" d="M56.1,93.4c-8.9,6-44.5,31.1-45.2,31.9c-1.2,1.4-1.2,4.4,0,5.6c0.5,0.5,11.3,8.1,24,17C50,158.4,58.4,164,59.4,164.2c1.2,0.2,1.8,0,3.1-1.2l1.6-1.4l0.1-32.2c0.1-17.7,0-32.9-0.1-33.8C63.4,91.8,59.9,90.8,56.1,93.4z M55.4,128.2v23.1l-1.3-0.8c-6.1-4-31.5-22-31.5-22.4c0-0.4,31.7-22.9,32.4-23C55.3,105,55.4,115.4,55.4,128.2z"/><path id="right-arrow" fill="#ff0000" d="M193.2,93c-0.6,0.6-1.2,1.8-1.4,2.7c-0.1,0.9-0.2,16.1-0.1,33.8l0.1,32.2l1.6,1.4c1.3,1.1,1.9,1.4,3.1,1.2c2.2-0.4,48.1-32.5,49.1-34.4c0.8-1.6,0.5-3.6-0.9-4.9c-1.2-1.1-44.8-31.7-46.3-32.5C196.6,91.5,194.4,91.8,193.2,93z M217.2,116.4c8.9,6.3,16.2,11.5,16.1,11.8c-0.1,0.3-27.1,19.4-31.8,22.5l-1.1,0.7v-23.1c0-12.7,0.1-23.1,0.3-23.1C200.9,105,208.3,110.2,217.2,116.4z"/><path id="middle" fill="#ff0000" d="M125.2,110.2c-5.8,0.8-11.1,4.9-13.7,10.4c-1.1,2.3-1.2,3.2-1.2,7.5c0,4.5,0.1,5.2,1.3,7.6c1.8,3.7,4.9,6.7,8.7,8.5c2.9,1.4,3.6,1.5,7.6,1.5c4,0,4.8-0.1,7.5-1.5c3.7-1.7,6.9-4.9,8.8-8.6c1.3-2.4,1.4-3.1,1.4-7.6c0-4.1-0.2-5.3-1.1-7.3C141,113.3,133.4,109.1,125.2,110.2z M130.4,119.2c4.1,1.1,7.3,6.1,6.6,10c-0.9,4.9-4.4,7.9-9.1,7.9c-10.3,0-12.7-14.2-3-17.7C127.2,118.6,128.1,118.5,130.4,119.2z"/><path id="down-arrow" fill="#ff0000" d="M94,192.4c-1.4,0.8-2.5,3.1-2.2,4.6c0.2,1.1,32.2,47.2,33.6,48.4c1.2,1,4.3,0.8,5.4-0.2c0.5-0.5,8.2-11.4,17.2-24.2c10.4-14.8,16.3-23.7,16.3-24.4c0-1.8-1.3-3.8-2.9-4.3c-1-0.4-11.3-0.5-33.8-0.5C100.5,191.7,95,191.8,94,192.4z M151,200.8c0,0.6-22.7,32.5-23.1,32.5c-0.4,0-23.1-32-23.1-32.5c0-0.1,10.4-0.2,23.1-0.2C140.7,200.6,151,200.7,151,200.8z"/></g></g></g>
</svg>